<?xml version="1.0" encoding="UTF-8"?> <svg xmlns="http://www.w3.org/2000/svg" xmlns:xlink="http://www.w3.org/1999/xlink" width="64px" height="64px" viewBox="0 0 64 64" version="1.1"><g id="surface1"><path style=" stroke:none;fill-rule:evenodd;fill:rgb(98.823529%,98.431373%,98.431373%);fill-opacity:1;" d="M 47.738281 15.386719 L 46.9375 16.996094 L 45.222656 17.242188 C 44.28125 17.375 43.492188 17.5 43.476562 17.515625 C 43.457031 17.535156 44.011719 18.109375 44.703125 18.792969 L 45.964844 20.035156 L 45.664062 21.777344 C 45.5 22.730469 45.375 23.523438 45.386719 23.535156 C 45.398438 23.546875 46.113281 23.1875 46.976562 22.734375 L 48.546875 21.910156 L 48.996094 22.144531 C 49.246094 22.273438 49.953125 22.644531 50.570312 22.964844 C 51.472656 23.4375 51.691406 23.53125 51.691406 23.441406 C 51.6875 23.382812 51.566406 22.640625 51.421875 21.792969 C 51.273438 20.945312 51.152344 20.195312 51.152344 20.125 C 51.152344 20.042969 51.566406 19.597656 52.410156 18.777344 C 53.101562 18.105469 53.652344 17.539062 53.640625 17.527344 C 53.625 17.511719 52.824219 17.382812 51.859375 17.242188 C 50.609375 17.058594 50.105469 16.960938 50.085938 16.902344 C 50.070312 16.859375 49.714844 16.136719 49.296875 15.296875 L 48.535156 13.773438 L 47.738281 15.386719 M 11.25 25.890625 C 11.261719 25.929688 12.484375 30.394531 13.957031 35.808594 L 16.640625 45.65625 L 20.226562 45.652344 L 23.8125 45.652344 L 24.878906 41.179688 C 25.855469 37.074219 26.207031 35.40625 26.773438 32.195312 C 26.914062 31.410156 26.996094 31.074219 27.050781 31.074219 C 27.09375 31.074219 27.128906 31.101562 27.128906 31.140625 C 27.128906 31.175781 27.199219 31.652344 27.28125 32.199219 C 27.632812 34.476562 28.085938 36.652344 29.125 41.023438 L 30.21875 45.625 L 37.515625 45.65625 L 37.640625 45.191406 C 37.710938 44.9375 38.933594 40.480469 40.359375 35.285156 L 42.949219 25.84375 L 39.691406 25.828125 C 37.898438 25.820312 36.421875 25.828125 36.402344 25.84375 C 36.339844 25.90625 34.476562 34.152344 34.335938 34.988281 C 34.171875 35.976562 33.992188 37.378906 33.835938 38.933594 C 33.707031 40.1875 33.652344 40.1875 33.484375 38.933594 C 33.242188 37.121094 33.050781 36.125 31.324219 27.785156 L 30.921875 25.84375 L 27.144531 25.828125 C 25.066406 25.820312 23.363281 25.828125 23.363281 25.847656 C 23.363281 25.863281 22.949219 27.6875 22.445312 29.894531 C 21.308594 34.839844 20.855469 37.15625 20.675781 38.902344 C 20.546875 40.199219 20.476562 40.328125 20.414062 39.394531 C 20.253906 37.128906 19.898438 35.054688 18.714844 29.460938 L 17.949219 25.84375 L 14.585938 25.828125 C 11.902344 25.816406 11.226562 25.828125 11.25 25.890625 "></path><path style=" stroke:none;fill-rule:evenodd;fill:rgb(16.470589%,25.490198%,90.980393%);fill-opacity:1;" d="M 29.820312 0.0351562 C 23.335938 0.59375 17.796875 2.652344 12.847656 6.335938 C 2.570312 13.992188 -2.152344 27.140625 0.898438 39.613281 C 4.878906 55.890625 20.746094 66.332031 37.320312 63.578125 C 50.707031 61.355469 61.355469 50.707031 63.578125 37.320312 C 64.285156 33.066406 64.117188 28.542969 63.101562 24.386719 C 59.914062 11.351562 49.113281 1.835938 35.617188 0.171875 C 34.675781 0.0546875 30.679688 -0.0390625 29.820312 0.0351562 M 49.355469 15.378906 C 49.988281 16.683594 50.144531 16.960938 50.261719 16.988281 C 50.339844 17.003906 51.136719 17.121094 52.035156 17.246094 C 52.953125 17.375 53.664062 17.503906 53.664062 17.539062 C 53.664062 17.570312 53.097656 18.148438 52.402344 18.824219 L 51.140625 20.046875 L 51.417969 21.660156 C 51.566406 22.550781 51.707031 23.335938 51.722656 23.410156 C 51.769531 23.621094 51.699219 23.59375 50.078125 22.738281 L 48.558594 21.9375 L 47.539062 22.476562 C 45.945312 23.316406 45.421875 23.570312 45.386719 23.535156 C 45.367188 23.515625 45.484375 22.722656 45.652344 21.773438 L 45.953125 20.046875 L 44.699219 18.816406 C 44.007812 18.140625 43.445312 17.5625 43.445312 17.527344 C 43.445312 17.496094 44.175781 17.367188 45.070312 17.246094 C 45.96875 17.121094 46.757812 17.007812 46.824219 16.992188 C 46.917969 16.96875 47.128906 16.589844 47.714844 15.382812 C 48.136719 14.515625 48.507812 13.804688 48.535156 13.804688 C 48.566406 13.804688 48.933594 14.511719 49.355469 15.378906 M 17.988281 25.835938 C 17.988281 25.84375 18.359375 27.625 18.820312 29.792969 C 19.277344 31.960938 19.707031 34.042969 19.773438 34.421875 C 20.097656 36.203125 20.285156 37.53125 20.402344 38.894531 C 20.449219 39.429688 20.5 39.878906 20.511719 39.890625 C 20.523438 39.90625 20.566406 39.574219 20.609375 39.15625 C 20.796875 37.265625 21.285156 34.753906 22.457031 29.667969 L 23.335938 25.84375 L 27.136719 25.828125 L 30.941406 25.8125 L 30.976562 25.949219 C 31.035156 26.183594 32.789062 34.707031 32.980469 35.691406 C 33.25 37.0625 33.644531 39.554688 33.644531 39.878906 C 33.644531 39.910156 33.65625 39.925781 33.671875 39.910156 C 33.6875 39.894531 33.757812 39.355469 33.824219 38.71875 C 34.171875 35.378906 34.242188 34.988281 35.414062 29.898438 L 36.351562 25.816406 L 39.660156 25.816406 C 41.476562 25.816406 42.964844 25.835938 42.96875 25.859375 C 42.96875 25.882812 41.75 30.347656 40.261719 35.777344 L 37.558594 45.652344 L 33.875 45.652344 L 30.191406 45.65625 L 30.128906 45.402344 C 28.828125 40.191406 27.6875 34.980469 27.28125 32.410156 C 27.167969 31.699219 27.066406 31.109375 27.050781 31.09375 C 27.015625 31.058594 26.957031 31.339844 26.679688 32.925781 C 26.203125 35.636719 25.945312 36.84375 24.945312 41.054688 C 24.367188 43.46875 23.882812 45.492188 23.867188 45.550781 C 23.835938 45.648438 23.625 45.65625 20.214844 45.640625 L 16.597656 45.625 L 13.894531 35.71875 L 11.195312 25.816406 L 14.589844 25.816406 C 16.457031 25.816406 17.988281 25.824219 17.988281 25.835938 "></path><path style=" stroke:none;fill-rule:evenodd;fill:rgb(16.470589%,25.490198%,90.980393%);fill-opacity:0.929412;" d="M 53.328125 17.882812 L 53.152344 18.078125 L 53.347656 17.902344 C 53.453125 17.804688 53.542969 17.71875 53.542969 17.707031 C 53.542969 17.660156 53.492188 17.703125 53.328125 17.882812 "></path><path style=" stroke:none;fill-rule:evenodd;fill:rgb(16.470589%,25.490198%,90.980393%);fill-opacity:0.788235;" d="M 51.417969 19.734375 L 51.121094 20.046875 L 51.4375 19.753906 C 51.726562 19.476562 51.777344 19.421875 51.734375 19.421875 C 51.722656 19.421875 51.582031 19.5625 51.417969 19.734375 "></path><path style=" stroke:none;fill-rule:evenodd;fill:rgb(16.470589%,25.490198%,90.980393%);fill-opacity:0.976471;" d="M 52.792969 18.421875 L 52.4375 18.792969 L 52.808594 18.4375 C 53.015625 18.242188 53.183594 18.074219 53.183594 18.0625 C 53.183594 18.019531 53.125 18.074219 52.792969 18.421875 "></path></g></svg> 